<?xml version="1.0" standalone="no"?>
<!DOCTYPE svg PUBLIC "-//W3C//DTD SVG 20010904//EN"
 "http://www.w3.org/TR/2001/REC-SVG-20010904/DTD/svg10.dtd">
<svg version="1.0" xmlns="http://www.w3.org/2000/svg"
 width="904.000000pt" height="904.000000pt" viewBox="0 0 904.000000 904.000000"
 preserveAspectRatio="xMidYMid meet">
<metadata>
Created by potrace 1.14, written by Peter Selinger 2001-2017
</metadata>
<g transform="translate(0.000000,904.000000) scale(0.100000,-0.100000)"
fill="#000000" stroke="none">
<path d="M3639 7576 c-2 -2 -24 -7 -49 -11 -25 -4 -49 -8 -55 -9 -58 -13 -82
-20 -92 -28 -7 -6 -13 -8 -13 -4 0 8 -83 -25 -91 -37 -3 -5 -8 -7 -10 -5 -9 7
-123 -66 -163 -106 -59 -57 -84 -110 -91 -190 -4 -37 -8 -76 -10 -87 -4 -20
-15 -114 -21 -174 -1 -16 -3 -30 -4 -30 -1 0 -3 -18 -5 -40 -3 -22 -7 -65 -11
-95 -3 -30 -8 -71 -10 -90 -3 -32 -7 -59 -20 -155 -2 -16 -6 -52 -9 -80 -8
-81 -17 -158 -28 -240 -8 -56 -17 -134 -38 -315 -6 -58 -13 -116 -15 -130 -2
-14 -6 -50 -9 -80 -3 -30 -8 -73 -11 -95 -4 -22 -8 -56 -10 -75 -4 -39 -11
-102 -21 -170 -3 -25 -6 -53 -5 -62 0 -10 0 -18 -1 -18 -1 0 -24 7 -52 16 -60
18 -82 24 -115 29 -14 2 -58 11 -98 19 -210 43 -661 38 -879 -9 -13 -3 -25 -6
-28 -6 -2 -1 -37 -10 -77 -20 -40 -11 -81 -22 -91 -24 -53 -12 -186 -64 -292
-115 -224 -105 -390 -224 -576 -409 -69 -69 -152 -162 -185 -206 -32 -44 -62
-81 -66 -83 -5 -2 -8 -9 -8 -16 0 -8 -9 -24 -19 -37 -48 -61 -201 -367 -201
-401 0 -6 -7 -24 -15 -41 -8 -18 -19 -50 -24 -72 -6 -22 -17 -67 -26 -100 -27
-103 -47 -206 -59 -305 -4 -30 -11 -82 -16 -115 -9 -67 -7 -518 4 -580 3 -22
9 -56 11 -75 9 -61 44 -198 60 -236 8 -20 15 -44 15 -54 0 -10 7 -23 15 -30 9
-7 13 -15 10 -18 -6 -6 109 -227 126 -242 3 -3 16 -21 30 -41 56 -84 156 -192
259 -280 69 -60 213 -156 268 -180 17 -8 32 -17 32 -21 0 -5 3 -7 8 -6 4 1 25
-6 47 -16 55 -25 165 -65 165 -61 0 2 18 -2 39 -10 22 -7 54 -16 73 -19 18 -4
65 -13 103 -20 107 -21 386 -19 510 4 281 52 483 160 698 372 l117 116 22 -41
c54 -107 163 -225 270 -295 74 -48 207 -107 265 -118 21 -4 42 -9 48 -12 5 -3
18 -7 30 -8 11 -1 34 -5 50 -8 49 -9 155 -18 240 -20 153 -3 342 40 503 114
45 21 82 36 82 32 0 -4 4 -2 8 4 5 8 119 76 153 92 7 3 6 -18 -7 -143 l-6 -60
531 0 c524 0 532 0 536 20 5 22 23 157 30 225 2 23 7 59 9 79 3 20 8 55 11 79
3 23 7 61 10 85 3 23 8 58 11 78 2 20 7 56 9 79 3 24 10 80 16 124 6 45 13 95
14 111 2 17 7 50 10 75 3 25 7 56 9 70 3 14 7 52 11 85 3 33 8 67 10 75 2 8 6
40 10 70 3 30 7 71 10 90 2 19 7 55 10 80 8 66 26 201 31 235 2 17 6 50 8 75
3 25 8 65 11 90 3 25 8 60 10 79 2 18 7 52 11 75 3 22 7 61 9 86 2 25 4 45 5
45 1 0 3 10 15 114 4 29 8 63 10 75 2 11 7 48 10 81 8 76 19 126 49 217 26 80
95 231 108 236 4 2 8 8 8 14 0 19 66 104 135 173 112 112 248 165 403 159 83
-3 181 -22 202 -39 8 -7 25 -16 38 -19 12 -4 22 -12 22 -17 0 -5 6 -9 13 -9
34 -1 131 -159 152 -250 18 -76 21 -140 10 -240 -4 -41 -9 -88 -11 -105 -1
-16 -3 -30 -4 -30 -1 0 -3 -24 -5 -53 -2 -29 -6 -67 -9 -85 -3 -18 -7 -61 -11
-97 -3 -36 -8 -83 -11 -105 -3 -22 -7 -56 -9 -75 -4 -48 -15 -147 -21 -195 -3
-22 -7 -60 -9 -85 -4 -45 -11 -111 -20 -185 -2 -22 -7 -65 -10 -95 -10 -89
-15 -122 -22 -133 -4 -6 -1 -7 7 -2 8 5 11 4 7 -2 -4 -6 -9 -31 -12 -54 -3
-24 -7 -60 -10 -79 -2 -19 -7 -64 -11 -100 -3 -36 -8 -78 -11 -95 -7 -50 -10
-236 -3 -240 3 -2 7 -18 8 -37 8 -105 101 -316 197 -442 51 -68 139 -158 180
-183 188 -116 328 -155 570 -157 208 -1 300 13 475 76 85 31 180 76 191 91 3
5 8 8 10 6 7 -5 94 54 164 111 254 208 466 550 609 984 37 111 42 137 29 150
-5 4 -8 11 -8 14 -2 19 -99 175 -129 208 -6 7 -25 29 -43 50 -17 22 -39 48
-50 60 -10 12 -33 38 -51 59 -32 36 -43 39 -48 12 -7 -41 -81 -275 -110 -351
-122 -313 -292 -549 -491 -678 -24 -16 -44 -28 -47 -28 -2 0 -21 -7 -42 -17
-60 -25 -176 -32 -201 -11 -7 6 -13 8 -13 4 0 -8 -49 23 -72 47 -10 9 -18 21
-18 26 0 5 -6 14 -14 20 -39 33 -60 231 -42 401 19 190 22 216 29 255 3 17 8
57 12 90 3 33 10 85 15 115 5 30 12 78 15 106 3 28 8 61 11 75 2 13 7 44 10
69 10 78 12 94 18 130 3 19 8 51 10 70 6 45 14 100 27 175 6 33 13 76 14 95 2
19 6 44 8 55 3 11 8 43 11 70 4 28 9 64 12 80 33 195 35 407 5 525 -24 92 -93
251 -112 258 -5 2 -9 10 -9 18 0 8 -4 14 -10 14 -5 0 -10 4 -10 10 0 19 -108
133 -174 185 -21 17 -44 35 -50 40 -14 12 -57 37 -106 62 -19 10 -36 21 -38
26 -2 4 -12 7 -21 7 -10 0 -21 3 -24 7 -19 19 -216 74 -312 88 -100 14 -122
16 -240 18 -106 3 -165 -1 -270 -18 -54 -8 -179 -43 -240 -66 -68 -26 -62 -24
-92 -34 -13 -4 -23 -11 -23 -15 0 -4 -10 -10 -23 -14 -34 -8 -192 -109 -271
-173 -66 -54 -68 -55 -63 -27 3 16 9 49 13 74 3 25 8 54 10 65 4 20 12 74 20
135 3 19 7 46 10 60 2 14 6 45 9 70 3 25 7 56 10 70 3 14 8 45 11 70 3 25 7
56 9 70 3 14 7 50 11 80 3 30 8 64 10 75 2 11 11 74 19 140 15 115 21 160 30
215 2 14 6 52 10 85 3 33 8 71 10 85 2 14 6 50 10 81 3 31 7 65 9 75 2 11 7
50 11 88 4 38 9 79 11 91 2 12 6 51 9 86 2 35 6 75 9 89 7 38 17 120 21 165 2
22 6 65 10 95 29 233 -3 329 -140 428 -12 8 -65 34 -80 38 -89 25 -127 35
-160 41 -72 14 -540 8 -540 -7 0 -1 -11 -3 -25 -6 -14 -2 -49 -11 -77 -19 -48
-14 -53 -18 -54 -45 -2 -34 -6 -69 -8 -72 -1 -2 -4 -19 -5 -38 -4 -38 -15
-145 -21 -200 -2 -19 -7 -60 -10 -90 -4 -30 -8 -68 -10 -85 -2 -16 -6 -57 -10
-90 -3 -33 -8 -73 -10 -90 -6 -49 -25 -211 -30 -270 -2 -16 -6 -48 -9 -70 -2
-22 -8 -67 -11 -100 -4 -33 -8 -71 -10 -85 -3 -14 -7 -54 -11 -90 -3 -36 -7
-76 -9 -90 -2 -14 -6 -47 -9 -75 -3 -27 -8 -70 -11 -95 -5 -48 -12 -110 -20
-175 -2 -22 -6 -56 -9 -75 -3 -19 -8 -62 -11 -94 -3 -33 -8 -73 -10 -90 -2
-17 -7 -56 -10 -86 -4 -30 -8 -71 -11 -90 -2 -19 -6 -60 -10 -90 -6 -63 -12
-108 -19 -165 -3 -22 -7 -65 -10 -95 -3 -30 -7 -66 -10 -80 -3 -21 -10 -79
-20 -180 -2 -14 -5 -43 -9 -65 -3 -22 -8 -65 -11 -95 -3 -30 -7 -71 -10 -90
-3 -19 -7 -60 -10 -90 -4 -30 -8 -73 -11 -95 -3 -22 -7 -56 -9 -75 -4 -39 -15
-126 -21 -180 -6 -48 -11 -95 -18 -160 -3 -30 -8 -66 -11 -79 -2 -13 -7 -52
-10 -86 -2 -35 -7 -79 -10 -99 -3 -20 -7 -51 -10 -69 -2 -19 -7 -58 -10 -88
-3 -30 -7 -70 -9 -89 -3 -19 -7 -62 -11 -95 -3 -33 -8 -76 -11 -95 -7 -45 -10
-70 -18 -150 -3 -36 -8 -74 -10 -85 -3 -18 -12 -92 -22 -192 -12 -118 -13
-122 -80 -217 -103 -148 -246 -273 -369 -322 -59 -24 -157 -30 -213 -13 -64
19 -117 77 -139 151 -11 37 -10 242 1 330 13 101 18 145 22 198 3 30 7 71 10
90 2 19 6 53 8 75 2 22 7 65 11 95 4 30 9 71 10 90 2 19 6 53 9 75 3 22 7 60
10 85 8 64 16 129 21 173 3 20 7 54 9 75 10 80 18 148 21 162 1 8 6 46 10 83
3 37 8 78 11 90 2 12 6 45 9 72 4 28 8 70 12 95 3 25 7 59 8 75 2 17 4 30 5
30 1 0 3 14 4 30 2 17 7 53 10 80 14 101 19 141 20 177 0 21 3 38 6 38 3 0 6
8 6 18 1 29 13 136 19 161 2 13 7 49 10 80 3 31 10 83 15 116 5 33 12 86 15
118 4 32 8 68 11 80 2 12 7 45 10 72 3 28 7 61 10 75 7 42 17 123 18 157 0 18
5 33 9 33 5 0 6 3 4 8 -3 4 -1 34 4 67 13 94 21 157 24 195 2 19 6 49 8 65 3
17 8 53 11 80 4 28 8 61 11 75 4 23 10 69 20 159 3 19 7 50 10 70 3 20 8 60
11 89 2 30 9 62 15 73 6 12 6 19 0 19 -6 0 -6 12 -1 33 5 17 11 55 14 82 2 28
5 50 6 50 2 0 4 12 13 102 3 28 8 67 11 85 3 18 8 53 11 78 3 25 7 56 9 70 3
14 7 48 10 75 10 86 17 139 22 165 2 14 7 50 10 80 6 58 10 86 18 135 3 17 8
63 12 103 6 63 5 72 -10 72 -9 0 -16 4 -16 9 0 7 -98 38 -159 49 -34 6 -386
13 -392 8z m-1209 -2870 c25 -3 81 -15 125 -27 44 -12 91 -24 105 -27 14 -3
27 -8 30 -12 3 -3 21 -11 40 -16 19 -6 34 -15 33 -21 -1 -6 -5 -35 -8 -64 -3
-30 -8 -65 -10 -79 -5 -36 -15 -117 -20 -175 -2 -27 -6 -61 -9 -75 -2 -14 -7
-50 -11 -80 -6 -60 -11 -101 -20 -170 -4 -25 -8 -65 -11 -90 -2 -25 -7 -63
-10 -85 -2 -22 -7 -58 -9 -80 -3 -22 -7 -56 -10 -75 -3 -19 -8 -60 -11 -90 -3
-30 -8 -68 -11 -85 -3 -16 -6 -46 -8 -65 -1 -19 -6 -60 -10 -90 -4 -30 -9 -66
-10 -80 -4 -36 -15 -129 -20 -170 -18 -149 -18 -150 -38 -205 -36 -98 -149
-315 -169 -323 -4 -2 -8 -8 -8 -13 0 -24 -172 -198 -221 -223 -104 -54 -130
-65 -196 -80 -67 -15 -186 -21 -243 -12 -201 31 -381 175 -476 381 -66 142
-92 288 -89 489 2 77 5 155 8 171 3 17 8 59 11 95 4 36 8 74 10 86 2 12 7 45
11 75 4 30 9 57 11 60 2 3 6 25 9 49 3 23 7 45 10 49 2 4 6 18 9 32 8 45 28
119 38 149 3 8 16 47 28 85 78 243 239 480 416 613 117 88 302 161 449 177 33
4 61 8 63 9 4 4 176 -2 222 -8z"/>
</g>
</svg>
