<svg xmlns="http://www.w3.org/2000/svg" viewBox="0 0 226.003 153.404">
  <path fill-rule="evenodd" fill="indigo" stroke="indigo" stroke-linecap="round" stroke-width=".25mm" d="m71.003 58.401 6-50.4q1.089-2.645 4.295-4.624a19.978 19.978 0 0 1 2.005-1.076Q87.82.18 94.037.015a40.021 40.021 0 0 1 1.066-.014q6.9 0 10.3 2-2 15.6-6.4 49a8973.23 8973.23 0 0 0-2.157 16.47q-7.043 54.217-7.043 60.43a12.246 12.246 0 0 0 .262 2.657q.991 4.443 5.738 4.443 5.2 0 10.8-6.5a32.444 32.444 0 0 0 3.338-4.762 84702.469 84702.469 0 0 0 1.661-14.187q9.963-85.201 12.401-107.951a20.4 20.4 0 0 1 3.242-.911q3.406-.684 8.084-.689a64.68 64.68 0 0 1 .074 0 39.543 39.543 0 0 1 5.301.323q5.833.794 8.362 3.536a7.57 7.57 0 0 1 1.937 5.341v1.2a1396.993 1396.993 0 0 1-3.052 26.02q-2.011 15.792-4.148 29.18 10.6-9.6 24-9.6a42.849 42.849 0 0 1 8.55.803q7.531 1.534 12.65 5.997a21.706 21.706 0 0 1 7.761 15.755 26.766 26.766 0 0 1 .039 1.445 22.534 22.534 0 0 1-.066 1.576q-.165 2.301-.742 6.251a226.823 226.823 0 0 1-.392 2.573 1829.67 1829.67 0 0 0-1.564 10.378q-3.036 20.597-3.036 24.822 0 6.939 3.379 8.756a5.873 5.873 0 0 0 2.821.644 9.398 9.398 0 0 0 4.158-1.048q2.98-1.464 6.167-4.973a39.186 39.186 0 0 0 .775-.879q5.654-6.613 9.196-20.114a105.746 105.746 0 0 0 .304-1.186q5.046 5.344 7.119 9.035a13.855 13.855 0 0 1 1.081 2.365 78.847 78.847 0 0 1-5.754 14.401q-4.021 7.57-9.332 12.33a31.399 31.399 0 0 1-21.714 8.069 32.01 32.01 0 0 1-7.125-.742q-4.748-1.085-8.163-3.753a18.369 18.369 0 0 1-3.112-3.105 29.802 29.802 0 0 1-4.102-6.803 23.318 23.318 0 0 1-1.898-9.197l4.8-44.2a17.164 17.164 0 0 0-.49-4.2 12.819 12.819 0 0 0-2.31-4.8q-2.496-3.209-7.692-3.558a19.533 19.533 0 0 0-1.308-.042q-6.2 0-10.5 4.9-4.111 4.684-6.12 12.203a44.704 44.704 0 0 0-.18.697q-1.072 8.728-2.965 23.611a14347.143 14347.143 0 0 1-1.235 9.689 17631.377 17631.377 0 0 0-1.13 8.849q-1.845 14.495-2.47 19.651h-26.6a84702.469 84702.469 0 0 0 .638-5.438 32.507 32.507 0 0 1-5.238 3.038q-6.626 3.218-12.535 3.39a22.855 22.855 0 0 1-.665.01q-11.469 0-18.039-5.314a20.818 20.818 0 0 1-5.761-7.486q-10.4 13-26.6 13a39.302 39.302 0 0 1-15.668-3.059 37.445 37.445 0 0 1-11.632-7.941 36.905 36.905 0 0 1-10.569-21.46 51.673 51.673 0 0 1-.531-7.54 72.114 72.114 0 0 1 2.154-18.116 51.382 51.382 0 0 1 13.246-23.684 51.821 51.821 0 0 1 35.721-15.523 68.885 68.885 0 0 1 3.279-.077h1.2q8.2 0 15.4 2.4Zm-7.2 58.8 5.2-43a45.308 45.308 0 0 0-4.632-1.559q-2.348-.643-4.452-.889a21.683 21.683 0 0 0-2.516-.152 27.121 27.121 0 0 0-9.775 1.694 24.07 24.07 0 0 0-10.525 8.006q-7.5 9.7-8.9 28.9-.2 1.8-.2 3.4 0 9.8 4.7 15.6 4.7 5.8 12.1 5.8 10.56 0 16.766-12.505a49.91 49.91 0 0 0 2.234-5.295Z" font-size="12" vector-effect="non-scaling-stroke"/>
</svg>
